<svg width="1156" height="237" viewBox="0 0 1156 237" fill="none" xmlns="http://www.w3.org/2000/svg">
<path d="M745.814 0.0208418C752.102 0.341446 757.617 4.31944 759.905 10.1839L831.002 192.37L865.687 157.687L865.971 157.41C868.941 154.583 872.889 153 877 153H1140C1148.84 153 1156 160.164 1156 169C1156 177.837 1148.84 185 1140 185H883.627L836.313 232.314C832.494 236.134 827.004 237.768 821.717 236.66C816.43 235.551 812.059 231.849 810.095 226.817L743.015 54.9251L670.236 196.803C667.709 201.729 662.814 204.999 657.296 205.448C651.778 205.896 646.419 203.46 643.13 199.006L590.531 127.796L520.023 216.459C516.988 220.276 512.377 222.5 507.5 222.5H16C7.16344 222.5 0 215.337 0 206.5C0 197.664 7.16344 190.5 16 190.5H499.781L578.478 91.5414L578.772 91.181C581.871 87.5089 586.465 85.4173 591.285 85.5033C596.261 85.592 600.913 87.9912 603.87 91.9945L653.54 159.24L730.764 8.6976L731.042 8.17904C734.006 2.88791 739.724 -0.289569 745.814 0.0208418Z" fill="url(#paint0_linear_57_5513)"/>
<defs>
<linearGradient id="paint0_linear_57_5513" x1="16" y1="118.5" x2="1140" y2="118.5" gradientUnits="userSpaceOnUse">
<stop offset="0.0240385" stop-color="#EC6315" stop-opacity="0"/>
<stop offset="0.168269" stop-color="#EC6315"/>
<stop offset="0.894231" stop-color="#ED6513"/>
<stop offset="0.995192" stop-color="#ED6513" stop-opacity="0"/>
</linearGradient>
</defs>
</svg>
